<?xml version="1.0" encoding="UTF-8" standalone="no"?>
<!-- Created with Inkscape (http://www.inkscape.org/) -->

<svg
   width="169.06067mm"
   height="45.039242mm"
   viewBox="0 0 169.06067 45.039242"
   version="1.1"
   id="svg1"
   xml:space="preserve"
   inkscape:export-filename="logo blanco.svg"
   inkscape:export-xdpi="96"
   inkscape:export-ydpi="96"
   inkscape:version="1.3.2 (091e20e, 2023-11-25, custom)"
   sodipodi:docname="turitrans.svg.2025_05_30_08_15_56.0.svg"
   xmlns:inkscape="http://www.inkscape.org/namespaces/inkscape"
   xmlns:sodipodi="http://sodipodi.sourceforge.net/DTD/sodipodi-0.dtd"
   xmlns="http://www.w3.org/2000/svg"
   xmlns:svg="http://www.w3.org/2000/svg"><sodipodi:namedview
     id="namedview1"
     pagecolor="#ffffff"
     bordercolor="#000000"
     borderopacity="0.25"
     inkscape:showpageshadow="2"
     inkscape:pageopacity="0.0"
     inkscape:pagecheckerboard="0"
     inkscape:deskcolor="#d1d1d1"
     inkscape:document-units="mm"
     inkscape:zoom="0.64126689"
     inkscape:cx="401.54888"
     inkscape:cy="58.477992"
     inkscape:window-width="1366"
     inkscape:window-height="705"
     inkscape:window-x="-8"
     inkscape:window-y="-8"
     inkscape:window-maximized="1"
     inkscape:current-layer="layer1" /><defs
     id="defs1" /><g
     inkscape:label="Capa 1"
     inkscape:groupmode="layer"
     id="layer1"
     transform="translate(-20.670616,-44.856679)"><path
       style="display:none;fill:#000000"
       d="m 56.491308,88.931193 c 0.968632,-0.19948 2.113379,-0.4133 2.543882,-0.47517 0.430503,-0.0619 2.63194,-0.42979 4.892081,-0.81762 2.260141,-0.38782 4.417549,-0.75185 4.794239,-0.80894 0.37669,-0.0571 4.383304,-0.65487 8.903587,-1.3284 4.520282,-0.67352 9.671643,-1.4083 11.447468,-1.63284 1.775822,-0.22454 3.492942,-0.44652 3.815822,-0.4933 0.32288,-0.0468 1.3891,-0.17692 2.36938,-0.28921 0.98028,-0.11229 3.22575,-0.38429 4.989923,-0.60444 1.76418,-0.22016 3.73594,-0.44717 4.3817,-0.50447 0.64575,-0.0573 2.80315,-0.2837 4.79424,-0.5031 1.99108,-0.21941 6.08578,-0.62828 9.09932,-0.90861 3.01353,-0.28032 7.50447,-0.64444 9.97986,-0.80916 2.47539,-0.16471 6.74618,-0.39431 9.49064,-0.51022 2.74445,-0.11591 7.80776,-0.29979 11.25178,-0.40862 3.44403,-0.10883 13.57063,-0.19136 22.50357,-0.18339 16.24171,0.0145 16.24171,0.0145 14.5784,0.58886 -0.91482,0.3159 -3.51251,1.17632 -5.77265,1.91203 -2.26014,0.73572 -6.78634,2.24907 -10.05822,3.36302 -5.94886,2.02534 -5.94886,2.02534 -9.39279,1.70428 -1.89416,-0.17659 -5.24911,-0.45405 -7.45543,-0.6166 -2.20633,-0.16254 -6.52115,-0.40302 -9.58848,-0.53439 -3.39559,-0.14544 -8.21759,-0.19002 -12.32805,-0.11399 -3.71309,0.0687 -9.12862,0.21816 -12.03452,0.33218 -2.90592,0.11401 -7.74911,0.30188 -10.76264,0.41748 -3.01353,0.11559 -7.90071,0.34369 -10.860423,0.50688 -2.95971,0.16319 -7.582728,0.4312 -10.273373,0.59558 -2.690644,0.16437 -6.036827,0.38632 -7.435962,0.49321 -1.399135,0.10688 -3.424457,0.24627 -4.500714,0.30974 -1.076258,0.0635 -4.554527,0.3399 -7.729488,0.61429 -3.17496,0.27439 -7.31366,0.63496 -9.197111,0.80125 -1.883451,0.1663 -3.600572,0.29426 -3.815823,0.28436 -0.215252,-0.01 0.40115,-0.18122 1.369782,-0.38069 z"
       id="path3"
       sodipodi:nodetypes="ssssssssssssssssssssssssssssssscs" /><path
       style="display:none;fill:#000000"
       d="m 95.020347,75.208233 c -0.59194,-0.1616 -1.2964,-0.45596 -1.56547,-0.65414 -0.26906,-0.19819 -0.68733,-0.76006 -0.92949,-1.24861 -0.73886,-1.49063 -0.82103,-1.92694 2.13321,-14.621091 1.08447,-4.6599 2.14373,-9.06259 2.3539,-9.78376 0.21017,-0.72118 0.56213,-1.47009 0.78213,-1.66425 0.33933,-0.29948 0.81227,-0.35302 3.117893,-0.35302 2.4583,0 2.71782,0.0337 2.71713,0.35302 -4.2e-4,0.19416 -0.30035,1.51043 -0.66653,2.92504 -0.66576,2.57202 -0.66576,2.57202 2.94215,2.57202 3.03482,0 3.6259,0.0483 3.72114,0.30417 0.0623,0.16729 -0.0849,1.14314 -0.32701,2.16856 -0.24213,1.02542 -0.51909,2.02326 -0.61546,2.21743 -0.15757,0.31745 -0.54915,0.35302 -3.88632,0.35302 -2.0411,0 -3.71109,0.0579 -3.71109,0.12857 0,0.0707 -0.52835,2.44077 -1.174104,5.26679 -0.64576,2.826031 -1.174099,5.495611 -1.174099,5.932411 0,0.57425 0.133019,0.93132 0.480309,1.28934 0.40634,0.41889 0.66657,0.49515 1.689674,0.49515 0.66514,0 1.77188,-0.10685 2.45942,-0.23745 0.80565,-0.15303 1.31739,-0.16804 1.43945,-0.0422 0.12205,0.12582 0.0195,0.83167 -0.2884,1.98544 -0.26278,0.98462 -0.59749,1.91363 -0.74381,2.06447 -0.14681,0.15134 -1.22544,0.40587 -2.40674,0.56792 -1.17738,0.16152 -2.845153,0.28947 -3.706163,0.28434 -0.861,-0.005 -2.04978,-0.14156 -2.64172,-0.30316 z m 31.994203,0.21825 c -0.10762,-0.0387 -0.68172,-0.2095 -1.27578,-0.37966 -0.59405,-0.17016 -1.47824,-0.58124 -1.96486,-0.91352 -0.48662,-0.33228 -1.10129,-0.99396 -1.36594,-1.4704 -0.42445,-0.76413 -0.48053,-1.10407 -0.47567,-2.88352 0.005,-1.82788 0.0601,-2.12973 0.58705,-3.21503 0.31984,-0.65877 1.0217,-1.64471 1.55968,-2.19098 0.53798,-0.54627 1.46259,-1.244091 2.05468,-1.550721 0.59209,-0.30662 1.54316,-0.65965 2.1135,-0.78449 0.58787,-0.12869 2.89121,-0.227 5.31849,-0.227 4.28153,0 4.28153,0 4.50577,-1.11354 0.12333,-0.61245 0.16861,-1.37464 0.10062,-1.69376 -0.068,-0.31913 -0.28891,-0.73444 -0.49094,-0.92291 -0.20202,-0.18848 -0.70336,-0.46624 -1.11409,-0.61725 -0.48379,-0.17787 -1.67705,-0.27766 -3.38848,-0.28337 -1.57266,-0.005 -3.26242,0.11362 -4.17549,0.29373 -0.84356,0.16641 -1.70212,0.30256 -1.90791,0.30256 -0.24995,0 -0.37415,-0.141 -0.37415,-0.42477 0,-0.23362 0.13559,-0.98253 0.3013,-1.66425 0.16572,-0.68171 0.39182,-1.47734 0.50244,-1.76806 0.11062,-0.29072 0.40872,-0.62609 0.66243,-0.74526 0.25372,-0.11917 1.58126,-0.32523 2.95008,-0.4579 1.46126,-0.14163 3.66883,-0.19218 5.34704,-0.12244 1.57205,0.0653 3.29856,0.24576 3.83669,0.40096 0.53813,0.15521 1.33065,0.46963 1.76115,0.69873 0.43051,0.2291 1.05848,0.71953 1.39549,1.08984 0.33702,0.37031 0.72324,1.02979 0.85828,1.46551 0.16293,0.52576 0.20451,1.33996 0.12361,2.42072 -0.076,1.01571 -0.7454,4.16628 -1.77887,8.372611 -1.33541,5.43528 -1.74662,6.83652 -2.11891,7.2203 -0.3723,0.38381 -0.78221,0.51164 -2.11249,0.65878 -0.90781,0.10042 -2.4871,0.27654 -3.50955,0.3914 -1.02244,0.11485 -3.17985,0.20323 -4.79423,0.19639 -1.61439,-0.007 -3.02331,-0.044 -3.13094,-0.0827 z m 8.02649,-4.76405 c 0.48325,-0.24318 0.61737,-0.5297 1.07431,-2.29514 0.28717,-1.1095 0.58209,-2.26691 0.65539,-2.57202 0.13327,-0.55475 0.13327,-0.55475 -2.5611,-0.55362 -1.4819,6.1e-4 -3.0466,0.10031 -3.4771,0.22153 -0.43051,0.12123 -1.07939,0.45129 -1.44196,0.73347 -0.36258,0.28219 -0.83299,0.91801 -1.04536,1.41294 -0.25964,0.60509 -0.34692,1.11532 -0.26644,1.55757 0.0658,0.36173 0.28825,0.81495 0.49427,1.00716 0.20602,0.19221 0.71063,0.47922 1.12135,0.63782 0.53422,0.20627 1.33704,0.26555 2.82061,0.20825 1.20647,-0.0466 2.30479,-0.19631 2.62603,-0.35796 z m 37.66555,4.7505 c -0.26907,-0.0466 -1.25118,-0.18772 -2.18249,-0.31358 -0.9313,-0.12586 -1.80447,-0.29968 -1.94037,-0.38626 -0.1921,-0.1224 -0.12352,-0.58883 0.30814,-2.09571 0.30539,-1.06605 0.67487,-2.04061 0.82107,-2.1657 0.19744,-0.16892 0.69353,-0.16575 1.92843,0.0123 0.91444,0.13188 2.78301,0.29329 4.1524,0.35869 1.62229,0.0775 2.88131,0.0346 3.61348,-0.12317 0.78772,-0.1697 1.29966,-0.42348 1.71223,-0.8488 0.39171,-0.40381 0.58854,-0.80835 0.58854,-1.20964 0,-0.33161 -0.0951,-0.7862 -0.21144,-1.01019 -0.11629,-0.224 -0.51113,-0.53636 -0.87742,-0.69414 -0.36629,-0.15777 -1.60273,-0.47321 -2.74763,-0.70098 -1.14491,-0.22777 -2.54598,-0.59322 -3.11351,-0.81212 -0.56752,-0.21889 -1.40099,-0.67365 -1.85216,-1.01057 -0.51643,-0.38565 -0.96842,-0.957751 -1.22014,-1.544381 -0.32866,-0.76595 -0.38056,-1.19448 -0.29157,-2.40748 0.0783,-1.06677 0.28387,-1.86843 0.742,-2.89307 0.37066,-0.82897 0.94258,-1.70502 1.37768,-2.11024 0.40916,-0.38107 1.09774,-0.92311 1.53018,-1.20452 0.43244,-0.28142 1.47033,-0.7573 2.30643,-1.0575 1.40125,-0.50313 1.76509,-0.54651 4.6511,-0.55458 2.1921,-0.006 3.79034,0.10514 5.33,0.37109 1.20948,0.20891 2.27522,0.48124 2.36831,0.60518 0.10069,0.13407 -0.0459,0.9862 -0.36196,2.10379 -0.29217,1.03315 -0.63101,1.98134 -0.753,2.10709 -0.16527,0.17037 -0.78307,0.16742 -2.42415,-0.0116 -1.2113,-0.13212 -3.14673,-0.29923 -4.30096,-0.37135 -1.7162,-0.10724 -2.25558,-0.0693 -2.9602,0.20809 -0.47389,0.18657 -0.99207,0.49481 -1.15151,0.68499 -0.15944,0.19017 -0.34182,0.5647 -0.40528,0.83227 -0.0635,0.26757 -0.0298,0.6513 0.0747,0.85272 0.10456,0.20142 0.36685,0.46372 0.58285,0.58289 0.21601,0.11917 1.71792,0.53031 3.33757,0.91364 1.61966,0.38332 3.37616,0.88823 3.90332,1.12202 0.52717,0.23378 1.30382,0.81127 1.72589,1.283301 0.56701,0.63414 0.83305,1.16067 1.01882,2.01644 0.19448,0.89584 0.20118,1.40514 0.0296,2.24844 -0.122,0.59964 -0.46039,1.63826 -0.75196,2.30804 -0.34706,0.79723 -0.86465,1.52783 -1.4988,2.11559 -0.53277,0.4938 -1.5094,1.16248 -2.17028,1.48596 -0.66089,0.32348 -1.72996,0.74019 -2.37571,0.92601 -0.83469,0.2402 -2.16406,0.35722 -4.59856,0.4048 -1.88345,0.0368 -3.6446,0.0288 -3.91366,-0.0178 z m -65.78646,-0.39303 c -0.0562,-0.0579 0.31816,-1.94153 0.83183,-4.18584 0.51367,-2.24431 1.34499,-5.75994 1.84739,-7.812521 0.52384,-2.14018 1.1974,-4.34682 1.57919,-5.17354 0.45554,-0.98642 0.97901,-1.73194 1.65788,-2.36116 0.54568,-0.50577 1.44935,-1.1483 2.00816,-1.42786 0.55882,-0.27955 1.5884,-0.66398 2.28797,-0.85429 0.93767,-0.25508 2.10305,-0.34921 4.43437,-0.35819 1.73933,-0.007 3.21636,0.0429 3.28227,0.11022 0.0659,0.0673 -0.12588,1.06587 -0.42621,2.219 -0.54606,2.0966 -0.54606,2.0966 -2.89091,2.21696 -1.53442,0.0788 -2.6129,0.23829 -3.12042,0.46158 -0.42656,0.18767 -0.94226,0.49662 -1.146,0.68655 -0.20373,0.18993 -0.54127,0.6904 -0.75007,1.11216 -0.2088,0.42175 -0.99491,3.55356 -1.7469,6.959581 -0.75199,3.40602 -1.46054,6.55587 -1.57457,6.99966 -0.11402,0.4438 -0.34486,0.96577 -0.51296,1.15994 -0.26291,0.30364 -0.68,0.35302 -2.98228,0.35302 -1.47214,0 -2.72257,-0.0474 -2.77874,-0.10527 z m 37.33131,-0.0685 c -0.0573,-0.0956 0.45574,-2.61465 1.14009,-5.59793 0.68434,-2.98329 1.51866,-6.513481 1.85404,-7.844881 0.33537,-1.3314 0.91982,-3.07293 1.29877,-3.87007 0.44888,-0.94423 1.0067,-1.73763 1.60058,-2.27653 0.50137,-0.45495 1.44602,-1.08895 2.09922,-1.4089 0.65321,-0.31994 1.88936,-0.73014 2.747,-0.91154 0.85765,-0.18141 2.71085,-0.38349 4.11822,-0.44907 1.57402,-0.0733 3.19561,-0.0269 4.2133,0.12055 1.0591,0.1535 2.09882,0.4611 2.88936,0.85483 0.82969,0.41323 1.42051,0.87916 1.8005,1.41993 0.31464,0.44776 0.62446,1.20964 0.69829,1.71713 0.073,0.50174 0.0296,1.56088 -0.0964,2.35364 -0.12598,0.79277 -0.98367,4.43704 -1.90598,8.098391 -0.92231,3.66134 -1.79475,6.95202 -1.93877,7.31261 -0.26185,0.65561 -0.26185,0.65561 -3.10924,0.65561 -2.75795,0 -2.84739,-0.0132 -2.84739,-0.42168 0,-0.23192 0.25919,-1.43472 0.57599,-2.67288 0.31679,-1.23817 1.10931,-4.40479 1.76114,-7.03694 0.65184,-2.632151 1.18517,-5.069131 1.18517,-5.415511 0,-0.34637 -0.15105,-0.89337 -0.33566,-1.21555 -0.20263,-0.35362 -0.66758,-0.71645 -1.17312,-0.91549 -0.645,-0.25393 -1.27613,-0.30759 -2.74635,-0.23348 -1.4264,0.0719 -2.11443,0.20478 -2.72205,0.52571 -0.44724,0.23622 -0.99077,0.66226 -1.20785,0.94676 -0.23627,0.30964 -0.64493,1.62765 -1.01812,3.28369 -0.34288,1.52153 -1.12874,4.922561 -1.74634,7.557841 -0.70547,3.01019 -1.25446,4.94126 -1.47675,5.19448 -0.31989,0.36439 -0.60321,0.40305 -2.95368,0.40305 -1.42991,0 -2.64672,-0.0782 -2.70402,-0.17377 z"
       id="path4"
       sodipodi:nodetypes="sssssssssssssssssssssssscsssssssssssssssscssssssssssssssssscssssssssssssscssssssssscsssssssssscssssssssscsssssssssssccssssssscsscsssssssscssssssccsssssssssssssssssssscc"
       inkscape:label="trans" /><path
       style="display:none;fill:#000000"
       d="m 45.509633,75.320673 c -0.593513,-0.093 -1.474749,-0.34398 -1.958302,-0.55765 -0.483553,-0.21368 -1.154194,-0.62706 -1.490312,-0.91862 -0.336119,-0.29156 -0.7586,-0.85049 -0.938847,-1.24206 -0.180247,-0.39157 -0.407551,-1.21759 -0.50512,-1.83559 -0.12866,-0.81494 -0.0962,-1.60365 0.118163,-2.87085 0.162558,-0.96097 0.825908,-3.92595 1.474112,-6.588861 0.648204,-2.66291 1.397656,-5.59026 1.66545,-6.50522 0.30835,-1.05354 0.621428,-1.7378 0.853758,-1.86598 0.201773,-0.11132 1.476131,-0.2024 2.831906,-0.2024 1.993602,0 2.486259,0.057 2.575958,0.29796 0.061,0.16388 -0.424079,2.54678 -1.077956,5.29533 -0.653877,2.74856 -1.411011,6.062471 -1.682519,7.364251 -0.271508,1.30178 -0.493651,2.71569 -0.493651,3.14204 0,0.54341 0.131633,0.90229 0.440287,1.20035 0.242158,0.23385 0.69805,0.52587 1.013092,0.64894 0.327456,0.12792 1.58471,0.20767 2.935249,0.18618 1.299344,-0.0207 2.64571,-0.11714 2.991925,-0.21436 0.507798,-0.1426 0.666487,-0.32223 0.820913,-0.92922 0.105287,-0.41384 0.417847,-1.68251 0.694577,-2.81927 0.276731,-1.13676 1.163858,-4.631681 1.971393,-7.766491 1.114249,-4.32547 1.56691,-5.78478 1.877471,-6.05269 0.343392,-0.29623 0.815975,-0.35302 2.937571,-0.35302 1.92419,0 2.552227,0.0642 2.628288,0.26849 0.05497,0.14767 -0.654106,3.43643 -1.575722,7.30835 -0.921616,3.871931 -2.031012,8.304381 -2.465324,9.849891 -0.434312,1.54552 -0.918608,3.0671 -1.076215,3.38129 -0.157606,0.31419 -0.497095,0.71346 -0.754421,0.88728 -0.281415,0.19008 -1.469013,0.43319 -2.980097,0.61003 -1.381728,0.16171 -4.141295,0.32935 -6.132372,0.37253 -1.991077,0.0432 -4.105741,0.002 -4.699255,-0.0906 z m -21.326614,-0.60898 c 0,-0.22741 0.446408,-2.33798 0.992018,-4.69016 0.545611,-2.35218 1.778326,-7.544671 2.739367,-11.538871 0.961041,-3.99419 1.787703,-7.44373 1.837026,-7.66563 0.08785,-0.39524 0.0032,-0.40228 -4.159976,-0.34577 -3.475605,0.0472 -4.320589,0.004 -4.639098,-0.23589 -0.38758,-0.29216 -0.387219,-0.30257 0.07557,-2.17581 0.255757,-1.03524 0.587995,-2.0865 0.738307,-2.33614 0.273294,-0.45388 0.273294,-0.45388 12.585278,-0.45388 7.585664,0 12.356194,0.0737 12.427152,0.1921 0.06334,0.10566 -0.111266,1.1269 -0.388019,2.26943 -0.337786,1.3945 -0.636263,2.19337 -0.908031,2.43035 -0.35926,0.31327 -0.898154,0.35302 -4.786038,0.35302 -2.409657,0 -4.381194,0.038 -4.381194,0.0845 0,0.0464 -1.328803,5.47039 -2.952896,12.05319 -1.624093,6.582801 -3.043794,12.082201 -3.154892,12.220891 -0.145071,0.1811 -1.022441,0.25216 -3.113284,0.25216 -2.804319,0 -2.911288,-0.0152 -2.911288,-0.41346 z m 39.919378,0.10109 c 0,-0.1718 0.705058,-3.3263 1.566797,-7.01001 0.861738,-3.68371 1.790773,-7.392511 2.064523,-8.241781 0.273749,-0.84927 0.752518,-1.94068 1.063931,-2.42535 0.311413,-0.48467 0.769283,-1.07699 1.017488,-1.31627 0.248205,-0.23928 0.968592,-0.75554 1.600858,-1.14724 0.632267,-0.39169 1.688957,-0.89432 2.348199,-1.11696 0.659243,-0.22263 1.944801,-0.49859 2.856797,-0.61325 0.911995,-0.11467 2.497029,-0.20709 3.522298,-0.20539 1.025268,0.002 1.986353,0.0829 2.135744,0.18041 0.227823,0.14873 0.202903,0.44911 -0.154548,1.86289 -0.234393,0.92706 -0.503887,1.87862 -0.598877,2.11457 -0.160201,0.39795 -0.348063,0.43503 -2.594168,0.51212 -2.269038,0.0779 -2.48863,0.12221 -3.488566,0.70442 -0.789365,0.4596 -1.183182,0.85366 -1.513077,1.51402 -0.245283,0.49098 -0.881199,2.70426 -1.413146,4.918381 -0.531948,2.21412 -1.271962,5.32806 -1.644476,6.91986 -0.372514,1.5918 -0.82895,3.06693 -1.014301,3.27806 -0.300363,0.34215 -0.631555,0.38389 -3.046239,0.38389 -2.315433,0 -2.709237,-0.0454 -2.709237,-0.31237 z m 16.437391,0.0216 c 0,-0.15994 0.395685,-2.00403 0.879299,-4.09798 0.483615,-2.09395 1.532342,-6.52861 2.330504,-9.854801 0.798163,-3.32619 1.578355,-6.49754 1.733759,-7.04745 0.282553,-0.99983 0.282553,-0.99983 3.084344,-1.05601 1.540984,-0.0309 2.878263,0.0227 2.971733,0.11901 0.0961,0.0991 -0.934967,4.78824 -2.374087,10.79663 -1.399214,5.841801 -2.638635,10.803681 -2.754267,11.026421 -0.195628,0.37682 -0.406979,0.40497 -3.040763,0.40497 -2.334515,0 -2.830522,-0.051 -2.830522,-0.29079 z m 6.126915,-25.658081 c -0.06746,-0.18125 0.03165,-1.17413 0.220247,-2.20642 0.188602,-1.03228 0.459424,-2.0414 0.601827,-2.24249 0.226299,-0.31955 0.630799,-0.37379 3.21108,-0.43058 2.60593,-0.0574 2.96678,-0.0257 3.07677,0.26978 0.0685,0.18412 -0.11534,1.25723 -0.40862,2.3847 -0.29328,1.12747 -0.62463,2.16347 -0.73635,2.30224 -0.14535,0.18055 -1.00492,0.2523 -3.022701,0.2523 -2.428239,0 -2.836613,-0.0457 -2.942253,-0.32953 z"
       id="path2"
       sodipodi:nodetypes="ssssssssssssssssssssssssssssssssssssscssssssssssssssssssssscsssssssssssssssscssssssscsssss"
       inkscape:label="turi" /><path
       style="display:inline;fill:#000000;fill-opacity:0;stroke:none;stroke-opacity:1"
       d="m 56.356603,87.902609 c 0.968632,-0.199467 2.113379,-0.413287 2.543882,-0.475157 0.430503,-0.0619 2.63194,-0.429797 4.892081,-0.817624 2.260141,-0.387817 4.417549,-0.751847 4.794239,-0.808937 0.37669,-0.0571 4.383304,-0.654864 8.903587,-1.328391 4.520282,-0.673517 9.671643,-1.408291 11.447468,-1.632831 1.775822,-0.22454 3.492942,-0.446517 3.815822,-0.493297 0.32288,-0.0468 1.3891,-0.17692 2.36938,-0.28921 0.98028,-0.112287 3.22575,-0.384287 4.989918,-0.604434 1.76419,-0.22016 3.73596,-0.44717 4.38172,-0.504467 0.64576,-0.0573 2.80316,-0.2837 4.79425,-0.5031 1.99108,-0.219407 6.08578,-0.628274 9.09932,-0.908604 3.01353,-0.280317 7.50447,-0.644437 9.97986,-0.809154 2.47539,-0.16471 6.74618,-0.39431 9.49064,-0.510217 2.74445,-0.11591 7.80776,-0.29979 11.25178,-0.40862 3.44403,-0.108827 13.57063,-0.191357 22.50357,-0.183387 16.24171,0.0145 16.24171,0.0145 14.5784,0.588857 -0.91482,0.315897 -3.51251,1.176311 -5.77265,1.912018 -2.26014,0.735717 -6.78634,2.249058 -10.05822,3.363002 -5.94886,2.025328 -5.94886,2.025328 -9.39279,1.704268 -1.89416,-0.176587 -5.24911,-0.454047 -7.45543,-0.616594 -2.20633,-0.16254 -6.52115,-0.40302 -9.58848,-0.534387 -3.39559,-0.14544 -8.21759,-0.19002 -12.32805,-0.11399 -3.71309,0.0687 -9.12862,0.218157 -12.03452,0.332177 -2.90592,0.11401 -7.74911,0.30188 -10.76264,0.417477 -3.01353,0.11559 -7.90074,0.34369 -10.860448,0.506877 -2.95971,0.16319 -7.582728,0.4312 -10.273373,0.595577 -2.690644,0.16437 -6.036827,0.38632 -7.435962,0.493207 -1.399135,0.10688 -3.424457,0.24627 -4.500714,0.30974 -1.076258,0.0635 -4.554527,0.339897 -7.729488,0.614287 -3.17496,0.274387 -7.31366,0.634954 -9.197111,0.801244 -1.883451,0.1663 -3.600572,0.29426 -3.815823,0.28436 -0.215252,-0.01 0.40115,-0.18122 1.369782,-0.38069 z"
       id="path3-0"
       sodipodi:nodetypes="ssssssssssssssssssssssssssssssscs" /><path
       style="display:inline;fill:#000000;fill-opacity:0;stroke:none;stroke-opacity:1"
       d="m 94.885642,74.179727 c -0.59194,-0.161597 -1.2964,-0.455957 -1.56547,-0.654134 -0.26906,-0.19818 -0.68733,-0.760057 -0.92949,-1.248604 -0.73886,-1.490621 -0.82103,-1.926928 2.13321,-14.621006 1.08447,-4.659876 2.14373,-9.062539 2.3539,-9.783706 0.21017,-0.721177 0.56213,-1.470081 0.78213,-1.664241 0.33933,-0.299477 0.81227,-0.353017 3.117888,-0.353017 2.45832,0 2.71784,0.0337 2.71715,0.353017 -4.2e-4,0.19416 -0.30035,1.510421 -0.66653,2.925025 -0.66577,2.572005 -0.66577,2.572005 2.94216,2.572005 3.03482,0 3.6259,0.0483 3.72114,0.304167 0.0623,0.16729 -0.0849,1.143134 -0.32701,2.168548 -0.24213,1.025414 -0.51909,2.023248 -0.61546,2.217418 -0.15757,0.317447 -0.54915,0.353017 -3.88633,0.353017 -2.04111,0 -3.71111,0.0579 -3.71111,0.12857 0,0.0707 -0.52835,2.440755 -1.174099,5.26676 -0.64576,2.826015 -1.174099,5.49559 -1.174099,5.932377 0,0.574247 0.133019,0.931314 0.480309,1.289331 0.40634,0.41889 0.66657,0.495147 1.689669,0.495147 0.66515,0 1.77189,-0.106837 2.45944,-0.237447 0.80565,-0.15303 1.31739,-0.16804 1.43945,-0.0422 0.12206,0.12582 0.0195,0.831664 -0.2884,1.985428 -0.26278,0.984614 -0.59749,1.913631 -0.74381,2.064458 -0.14681,0.15134 -1.22545,0.40587 -2.40675,0.567917 -1.17739,0.16152 -2.845158,0.28947 -3.706168,0.28434 -0.861,-0.005 -2.04978,-0.14156 -2.64172,-0.30316 z m 31.994228,0.21825 c -0.10762,-0.0387 -0.68172,-0.2095 -1.27578,-0.379657 -0.59405,-0.17016 -1.47824,-0.581237 -1.96486,-0.913507 -0.48662,-0.332287 -1.10129,-0.993964 -1.36594,-1.470401 -0.42445,-0.764124 -0.48053,-1.104064 -0.47567,-2.883502 0.005,-1.827871 0.0601,-2.129718 0.58705,-3.215012 0.31984,-0.658767 1.0217,-1.644701 1.55968,-2.190968 0.53798,-0.546267 1.46259,-1.244084 2.05468,-1.550711 0.59209,-0.30662 1.54316,-0.659647 2.1135,-0.784487 0.58787,-0.12869 2.89121,-0.226997 5.31849,-0.226997 4.28153,0 4.28153,0 4.50577,-1.113534 0.12333,-0.612447 0.16861,-1.374634 0.10062,-1.693751 -0.068,-0.319127 -0.28891,-0.734437 -0.49094,-0.922904 -0.20202,-0.18848 -0.70336,-0.466237 -1.11409,-0.617247 -0.48379,-0.17787 -1.67705,-0.27766 -3.38848,-0.28337 -1.57266,-0.005 -3.26242,0.11362 -4.17549,0.29373 -0.84356,0.166407 -1.70212,0.302557 -1.90791,0.302557 -0.24995,0 -0.37415,-0.140997 -0.37415,-0.424767 0,-0.23362 0.13559,-0.982524 0.3013,-1.664241 0.16572,-0.681707 0.39182,-1.477331 0.50244,-1.768048 0.11062,-0.29072 0.40872,-0.626087 0.66243,-0.745257 0.25372,-0.11917 1.58126,-0.325227 2.95008,-0.457897 1.46126,-0.14163 3.66883,-0.19218 5.34704,-0.12244 1.57205,0.0653 3.29856,0.24576 3.83669,0.400957 0.53813,0.15521 1.33065,0.469627 1.76115,0.698727 0.43051,0.2291 1.05848,0.719527 1.39549,1.089834 0.33702,0.370307 0.72324,1.029784 0.85828,1.465501 0.16293,0.525757 0.20451,1.339954 0.12361,2.420708 -0.076,1.015704 -0.7454,4.166256 -1.77887,8.372562 -1.33541,5.435257 -1.74662,6.836481 -2.11891,7.220258 -0.3723,0.383807 -0.78221,0.511637 -2.11249,0.658777 -0.90781,0.10043 -2.4871,0.276537 -3.50955,0.391397 -1.02244,0.11485 -3.17985,0.20323 -4.79423,0.19639 -1.61439,-0.007 -3.02331,-0.044 -3.13094,-0.0827 z m 8.02649,-4.764023 c 0.48325,-0.24318 0.61737,-0.529697 1.07431,-2.295128 0.28717,-1.109494 0.58209,-2.266895 0.65539,-2.572005 0.13327,-0.554747 0.13327,-0.554747 -2.5611,-0.553617 -1.4819,6.1e-4 -3.0466,0.10031 -3.4771,0.22153 -0.43051,0.121227 -1.07939,0.451287 -1.44196,0.733464 -0.36258,0.28219 -0.83299,0.918007 -1.04536,1.412934 -0.25964,0.605087 -0.34692,1.115314 -0.26644,1.557561 0.0658,0.361727 0.28825,0.814944 0.49427,1.007154 0.20602,0.192207 0.71063,0.479217 1.12135,0.637817 0.53422,0.206267 1.33704,0.265547 2.82061,0.208247 1.20647,-0.0466 2.30479,-0.196307 2.62603,-0.357957 z m 37.66555,4.750483 c -0.26907,-0.0466 -1.25118,-0.18773 -2.18249,-0.31359 -0.9313,-0.125857 -1.80447,-0.299677 -1.94037,-0.386247 -0.1921,-0.12241 -0.12352,-0.588837 0.30814,-2.095708 0.30539,-1.066044 0.67487,-2.040598 0.82107,-2.165688 0.19744,-0.168917 0.69353,-0.165747 1.92843,0.0123 0.91444,0.13189 2.78301,0.29329 4.1524,0.3587 1.62229,0.0775 2.88131,0.0346 3.61348,-0.12318 0.78772,-0.1697 1.29966,-0.423467 1.71223,-0.848787 0.39171,-0.403817 0.58854,-0.808354 0.58854,-1.209641 0,-0.33161 -0.0951,-0.786197 -0.21144,-1.010184 -0.11629,-0.224 -0.51113,-0.536357 -0.87742,-0.694137 -0.36629,-0.15777 -1.60273,-0.473197 -2.74763,-0.700977 -1.14491,-0.227767 -2.54598,-0.593217 -3.11351,-0.812114 -0.56752,-0.21889 -1.40099,-0.673647 -1.85216,-1.010564 -0.51643,-0.38565 -0.96842,-0.957744 -1.22014,-1.544371 -0.32866,-0.765947 -0.38056,-1.194474 -0.29157,-2.407468 0.0783,-1.066764 0.28387,-1.868418 0.742,-2.893052 0.37066,-0.828967 0.94258,-1.705011 1.37768,-2.110228 0.40916,-0.38107 1.09774,-0.923107 1.53018,-1.204514 0.43244,-0.28142 1.47033,-0.757297 2.30643,-1.057494 1.40125,-0.503127 1.76509,-0.546507 4.6511,-0.554577 2.1921,-0.006 3.79034,0.10514 5.33,0.371087 1.20948,0.20891 2.27522,0.481237 2.36831,0.605177 0.10069,0.13407 -0.0459,0.986194 -0.36196,2.103778 -0.29217,1.033144 -0.63101,1.981328 -0.753,2.107078 -0.16527,0.17037 -0.78307,0.16742 -2.42415,-0.0116 -1.2113,-0.13212 -3.14673,-0.299227 -4.30096,-0.371347 -1.7162,-0.10724 -2.25558,-0.0693 -2.9602,0.208087 -0.47389,0.18657 -0.99207,0.49481 -1.15151,0.684987 -0.15944,0.19017 -0.34182,0.564697 -0.40528,0.832267 -0.0635,0.267567 -0.0298,0.651294 0.0747,0.852714 0.10456,0.20142 0.36685,0.463717 0.58285,0.582887 0.21601,0.11917 1.71792,0.530307 3.33757,0.913634 1.61966,0.383317 3.37616,0.888224 3.90332,1.122014 0.52717,0.23378 1.30382,0.811267 1.72589,1.283294 0.56701,0.634134 0.83305,1.160661 1.01882,2.016428 0.19448,0.895834 0.20118,1.405131 0.0296,2.248428 -0.122,0.599634 -0.46039,1.638248 -0.75196,2.308025 -0.34706,0.797227 -0.86465,1.527821 -1.4988,2.115578 -0.53277,0.493807 -1.5094,1.162484 -2.17028,1.485951 -0.66089,0.32348 -1.72996,0.740197 -2.37571,0.926007 -0.83469,0.240207 -2.16406,0.357217 -4.59856,0.404797 -1.88345,0.0368 -3.6446,0.0288 -3.91366,-0.0178 z M 106.78545,73.9914 c -0.0562,-0.0579 0.31816,-1.941521 0.83183,-4.185816 0.51367,-2.244298 1.34499,-5.75991 1.84739,-7.812478 0.52384,-2.140168 1.1974,-4.346793 1.57919,-5.17351 0.45554,-0.986414 0.97901,-1.731931 1.65788,-2.361145 0.54568,-0.505767 1.44935,-1.148294 2.00816,-1.427854 0.55882,-0.279547 1.5884,-0.663974 2.28797,-0.854284 0.93767,-0.25508 2.10305,-0.349207 4.43437,-0.358187 1.73933,-0.007 3.21636,0.0429 3.28227,0.110217 0.0659,0.0673 -0.12588,1.065864 -0.42621,2.218988 -0.54606,2.096588 -0.54606,2.096588 -2.89091,2.216948 -1.53442,0.0788 -2.6129,0.23829 -3.12042,0.461577 -0.42656,0.18767 -0.94226,0.496617 -1.146,0.686547 -0.20373,0.189927 -0.54127,0.690394 -0.75007,1.112154 -0.2088,0.421747 -0.99491,3.553539 -1.7469,6.959541 -0.75199,3.405999 -1.46054,6.555831 -1.57457,6.999618 -0.11402,0.443797 -0.34486,0.965764 -0.51296,1.159934 -0.26291,0.30364 -0.68,0.353017 -2.98228,0.353017 -1.47214,0 -2.72257,-0.0474 -2.77874,-0.105267 z m 37.33131,-0.0685 c -0.0573,-0.0956 0.45574,-2.614635 1.14009,-5.5979 0.68434,-2.983272 1.51866,-6.513441 1.85404,-7.844835 0.33537,-1.331391 0.91982,-3.072912 1.29877,-3.870049 0.44888,-0.944224 1.0067,-1.737618 1.60058,-2.276515 0.50137,-0.454947 1.44602,-1.088944 2.09922,-1.408894 0.65321,-0.319937 1.88936,-0.730134 2.747,-0.911534 0.85765,-0.181407 2.71085,-0.383487 4.11822,-0.449067 1.57402,-0.0733 3.19561,-0.0269 4.2133,0.12055 1.0591,0.1535 2.09882,0.461097 2.88936,0.854824 0.82969,0.413227 1.42051,0.879157 1.8005,1.419924 0.31464,0.447757 0.62446,1.209631 0.69829,1.717118 0.073,0.501737 0.0296,1.560871 -0.0964,2.353628 -0.12598,0.792764 -0.98367,4.437013 -1.90598,8.098345 -0.92231,3.661319 -1.79475,6.951978 -1.93877,7.312568 -0.26185,0.655604 -0.26185,0.655604 -3.10924,0.655604 -2.75795,0 -2.84739,-0.0132 -2.84739,-0.421677 0,-0.231917 0.25919,-1.434711 0.57599,-2.672865 0.31679,-1.238161 1.10931,-4.404763 1.76114,-7.036898 0.65184,-2.632135 1.18517,-5.069103 1.18517,-5.41548 0,-0.34637 -0.15105,-0.893364 -0.33566,-1.215544 -0.20263,-0.353617 -0.66758,-0.716447 -1.17312,-0.915484 -0.645,-0.25393 -1.27613,-0.30759 -2.74635,-0.23348 -1.4264,0.0719 -2.11443,0.20478 -2.72205,0.525707 -0.44724,0.23622 -0.99077,0.662257 -1.20785,0.946757 -0.23627,0.309637 -0.64493,1.627638 -1.01812,3.283669 -0.34288,1.521521 -1.12874,4.922533 -1.74634,7.557798 -0.70547,3.010172 -1.25446,4.941233 -1.47675,5.19445 -0.31989,0.36439 -0.60321,0.403047 -2.95368,0.403047 -1.42991,0 -2.64672,-0.0782 -2.70402,-0.173767 z"
       id="path4-0"
       sodipodi:nodetypes="sssssssssssssssssssssssscsssssssssssssssscssssssssssssssssscssssssssssssscssssssssscsssssssssscssssssssscsssssssssssccssssssscsscsssssssscssssssccsssssssssssssssssssscc"
       inkscape:label="trans" /><path
       style="display:inline;fill:#000000;fill-opacity:0;stroke:none;stroke-opacity:1"
       d="m 45.374928,74.292167 c -0.593513,-0.093 -1.474749,-0.343967 -1.958302,-0.557647 -0.483553,-0.213677 -1.154194,-0.627057 -1.490312,-0.918614 -0.336119,-0.29156 -0.7586,-0.850487 -0.938847,-1.242054 -0.180247,-0.391567 -0.407551,-1.217581 -0.50512,-1.835578 -0.12866,-0.814937 -0.0962,-1.603641 0.118163,-2.870835 0.162558,-0.960964 0.825908,-3.925926 1.474112,-6.588821 0.648204,-2.662895 1.397656,-5.59023 1.66545,-6.505184 0.30835,-1.053534 0.621428,-1.737791 0.853758,-1.865971 0.201773,-0.111317 1.476131,-0.202397 2.831906,-0.202397 1.993602,0 2.486259,0.057 2.575958,0.297957 0.061,0.16388 -0.424079,2.546765 -1.077956,5.2953 -0.653877,2.748545 -1.411011,6.062437 -1.682519,7.364208 -0.271508,1.301774 -0.493651,2.715675 -0.493651,3.142022 0,0.543407 0.131633,0.902287 0.440287,1.200344 0.242158,0.23385 0.69805,0.525867 1.013092,0.648937 0.327456,0.12792 1.58471,0.207667 2.935249,0.186177 1.299344,-0.0207 2.64571,-0.117137 2.991925,-0.214357 0.507798,-0.1426 0.666487,-0.322217 0.820913,-0.929214 0.105287,-0.41384 0.417847,-1.682501 0.694577,-2.819255 0.276731,-1.136754 1.163858,-4.631653 1.971393,-7.766445 1.114249,-4.325446 1.56691,-5.784747 1.877471,-6.052657 0.343392,-0.296227 0.815975,-0.353017 2.937571,-0.353017 1.92419,0 2.552227,0.0642 2.628288,0.268487 0.05497,0.14767 -0.654106,3.436412 -1.575722,7.308308 -0.921616,3.871909 -2.031012,8.304335 -2.465324,9.849836 -0.434312,1.545511 -0.918608,3.067082 -1.076215,3.381269 -0.157606,0.3142 -0.497095,0.713457 -0.754421,0.887277 -0.281415,0.190077 -1.469013,0.433187 -2.980097,0.610027 -1.381728,0.161707 -4.141295,0.329347 -6.132372,0.372527 -1.991077,0.0432 -4.105741,0.002 -4.699255,-0.0906 z M 24.048314,73.68319 c 0,-0.227407 0.446408,-2.337965 0.992018,-4.690133 0.545611,-2.352165 1.778326,-7.544628 2.739367,-11.538804 0.961041,-3.994169 1.787703,-7.443688 1.837026,-7.665588 0.08785,-0.395237 0.0032,-0.402277 -4.159976,-0.345767 -3.475605,0.0472 -4.320589,0.004 -4.639098,-0.23589 -0.38758,-0.292157 -0.387219,-0.302567 0.07557,-2.175795 0.255757,-1.035234 0.587995,-2.086488 0.738307,-2.336128 0.273294,-0.453877 0.273294,-0.453877 12.585278,-0.453877 7.585664,0 12.356194,0.0737 12.427152,0.1921 0.06334,0.105657 -0.111266,1.126891 -0.388019,2.269415 -0.337786,1.394494 -0.636263,2.193358 -0.908031,2.430338 -0.35926,0.313267 -0.898154,0.353017 -4.786038,0.353017 -2.409657,0 -4.381194,0.038 -4.381194,0.0845 0,0.0464 -1.328803,5.470357 -2.952896,12.053121 -1.624093,6.582764 -3.043794,12.082131 -3.154892,12.220821 -0.145071,0.1811 -1.022441,0.252157 -3.113284,0.252157 -2.804319,0 -2.911288,-0.0152 -2.911288,-0.413457 z m 39.919378,0.10109 c 0,-0.1718 0.705058,-3.326282 1.566797,-7.009971 0.861738,-3.683689 1.790773,-7.392468 2.064523,-8.241732 0.273749,-0.849267 0.752518,-1.940668 1.063931,-2.425338 0.311413,-0.484667 0.769283,-1.076984 1.017488,-1.316261 0.248205,-0.23928 0.968592,-0.755537 1.600858,-1.147234 0.632267,-0.391687 1.688957,-0.894314 2.348199,-1.116954 0.659243,-0.222627 1.944801,-0.498587 2.856797,-0.613247 0.911995,-0.114667 2.497029,-0.207087 3.522298,-0.205387 1.025268,0.002 1.986353,0.0829 2.135744,0.180407 0.227823,0.14873 0.202903,0.44911 -0.154548,1.862881 -0.234393,0.927054 -0.503887,1.878608 -0.598877,2.114558 -0.160201,0.397947 -0.348063,0.435027 -2.594168,0.512117 -2.269038,0.0779 -2.48863,0.12221 -3.488566,0.704417 -0.789365,0.459597 -1.183182,0.853654 -1.513077,1.514011 -0.245283,0.490977 -0.881199,2.704245 -1.413146,4.91835 -0.531948,2.214108 -1.271962,5.32803 -1.644476,6.919821 -0.372514,1.591791 -0.82895,3.066915 -1.014301,3.278042 -0.300363,0.34215 -0.631555,0.383887 -3.046239,0.383887 -2.315433,0 -2.709237,-0.0454 -2.709237,-0.312367 z m 16.437391,0.0216 c 0,-0.15994 0.395685,-2.004018 0.879299,-4.097956 0.483615,-2.093938 1.532342,-6.528574 2.330504,-9.854746 0.798163,-3.326169 1.578355,-6.497501 1.733759,-7.047408 0.282553,-0.999824 0.282553,-0.999824 3.084344,-1.056004 1.540984,-0.0309 2.878263,0.0227 2.971733,0.119007 0.0961,0.0991 -0.934967,4.788213 -2.374087,10.79657 -1.399214,5.841767 -2.638635,10.80362 -2.754267,11.026357 -0.195628,0.37682 -0.406979,0.404967 -3.040763,0.404967 -2.334515,0 -2.830522,-0.051 -2.830522,-0.290787 z m 6.126915,-25.657936 c -0.06746,-0.181247 0.03165,-1.174121 0.220247,-2.206405 0.188602,-1.032274 0.459424,-2.041388 0.601827,-2.242478 0.226299,-0.31955 0.630799,-0.373787 3.21108,-0.430577 2.60593,-0.0574 2.96678,-0.0257 3.07677,0.269777 0.0685,0.18412 -0.11534,1.257224 -0.40862,2.384688 -0.29328,1.127464 -0.62463,2.163458 -0.73635,2.302225 -0.14535,0.18055 -1.00492,0.2523 -3.022701,0.2523 -2.428239,0 -2.836613,-0.0457 -2.942253,-0.32953 z"
       id="path2-1"
       sodipodi:nodetypes="ssssssssssssssssssssssssssssssssssssscssssssssssssssssssssscsssssssssssssssscssssssscsssss"
       inkscape:label="turi" /><path
       style="display:none;fill:#00abdf;fill-opacity:1"
       d="m 56.491308,89.514694 c 0.968632,-0.19948 2.113379,-0.4133 2.543882,-0.47517 0.430503,-0.0619 2.63194,-0.42979 4.892081,-0.81762 2.260141,-0.38782 4.417549,-0.75185 4.794239,-0.80894 0.37669,-0.0571 4.383304,-0.65487 8.903587,-1.3284 4.520282,-0.67352 9.671643,-1.4083 11.447468,-1.63284 1.775822,-0.22454 3.492942,-0.44652 3.815822,-0.4933 0.32288,-0.0468 1.3891,-0.17692 2.36938,-0.28921 0.98028,-0.11229 3.22575,-0.38429 4.989923,-0.60444 1.76418,-0.22016 3.73594,-0.44717 4.3817,-0.50447 0.64575,-0.0573 2.80315,-0.2837 4.79424,-0.5031 1.99108,-0.21941 6.08578,-0.62828 9.09932,-0.90861 3.01353,-0.28032 7.50447,-0.64444 9.97986,-0.80916 2.47539,-0.16471 6.74618,-0.39431 9.49064,-0.51022 2.74445,-0.11591 7.80776,-0.29979 11.25178,-0.40862 3.44403,-0.10883 13.57063,-0.19136 22.50357,-0.18339 16.24171,0.0145 16.24171,0.0145 14.5784,0.58886 -0.91482,0.3159 -3.51251,1.17632 -5.77265,1.91203 -2.26014,0.73572 -6.78634,2.24907 -10.05822,3.36302 -5.94886,2.02534 -5.94886,2.02534 -9.39279,1.70428 -1.89416,-0.17659 -5.24911,-0.45405 -7.45543,-0.6166 -2.20633,-0.16254 -6.52115,-0.40302 -9.58848,-0.53439 -3.39559,-0.14544 -8.21759,-0.19002 -12.32805,-0.11399 -3.71309,0.0687 -9.12862,0.21816 -12.03452,0.33218 -2.90592,0.11401 -7.74911,0.30188 -10.76264,0.41748 -3.01353,0.11559 -7.90071,0.34369 -10.860423,0.50688 -2.95971,0.16319 -7.582728,0.4312 -10.273373,0.59558 -2.690644,0.16437 -6.036827,0.38632 -7.435962,0.49321 -1.399135,0.10688 -3.424457,0.24627 -4.500714,0.30974 -1.076258,0.0635 -4.554527,0.3399 -7.729488,0.61429 -3.17496,0.27439 -7.31366,0.63496 -9.197111,0.80125 -1.883451,0.1663 -3.600572,0.29426 -3.815823,0.28436 -0.215252,-0.01 0.40115,-0.18122 1.369782,-0.38069 z"
       id="path10"
       sodipodi:nodetypes="ssssssssssssssssssssssssssssssscs" /><path
       style="display:none;fill:#00abdf;fill-opacity:1"
       d="m 95.020347,75.791734 c -0.59194,-0.1616 -1.2964,-0.45596 -1.56547,-0.65414 -0.26906,-0.19819 -0.68733,-0.76006 -0.92949,-1.24861 -0.73886,-1.49063 -0.82103,-1.92694 2.13321,-14.62109 1.08447,-4.6599 2.14373,-9.06259 2.3539,-9.78376 0.21017,-0.72118 0.56213,-1.47009 0.78213,-1.66425 0.33933,-0.29948 0.81227,-0.35302 3.117893,-0.35302 2.4583,0 2.71782,0.0337 2.71713,0.35302 -4.2e-4,0.19416 -0.30035,1.51043 -0.66653,2.92504 -0.66576,2.57202 -0.66576,2.57202 2.94215,2.57202 3.03482,0 3.6259,0.0483 3.72114,0.30417 0.0623,0.16729 -0.0849,1.14314 -0.32701,2.16856 -0.24213,1.02542 -0.51909,2.02326 -0.61546,2.21743 -0.15757,0.31745 -0.54915,0.35302 -3.88632,0.35302 -2.0411,0 -3.71109,0.0579 -3.71109,0.12857 0,0.0707 -0.52835,2.44077 -1.174104,5.26679 -0.64576,2.82603 -1.174099,5.49561 -1.174099,5.93241 0,0.57425 0.133019,0.93132 0.480309,1.28934 0.40634,0.41889 0.66657,0.49515 1.689674,0.49515 0.66514,0 1.77188,-0.10685 2.45942,-0.23745 0.80565,-0.15303 1.31739,-0.16804 1.43945,-0.0422 0.12205,0.12582 0.0195,0.83167 -0.2884,1.98544 -0.26278,0.98462 -0.59749,1.91363 -0.74381,2.06447 -0.14681,0.15134 -1.22544,0.40587 -2.40674,0.56792 -1.17738,0.16152 -2.845153,0.28947 -3.706163,0.28434 -0.861,-0.005 -2.04978,-0.14156 -2.64172,-0.30316 z m 31.994203,0.21825 c -0.10762,-0.0387 -0.68172,-0.2095 -1.27578,-0.37966 -0.59405,-0.17016 -1.47824,-0.58124 -1.96486,-0.91352 -0.48662,-0.33228 -1.10129,-0.99396 -1.36594,-1.4704 -0.42445,-0.76413 -0.48053,-1.10407 -0.47567,-2.88352 0.005,-1.82788 0.0601,-2.12973 0.58705,-3.21503 0.31984,-0.65877 1.0217,-1.64471 1.55968,-2.19098 0.53798,-0.54627 1.46259,-1.24409 2.05468,-1.55072 0.59209,-0.30662 1.54316,-0.65965 2.1135,-0.78449 0.58787,-0.12869 2.89121,-0.227 5.31849,-0.227 4.28153,0 4.28153,0 4.50577,-1.11354 0.12333,-0.61245 0.16861,-1.37464 0.10062,-1.69376 -0.068,-0.31913 -0.28891,-0.73444 -0.49094,-0.92291 -0.20202,-0.18848 -0.70336,-0.46624 -1.11409,-0.61725 -0.48379,-0.17787 -1.67705,-0.27766 -3.38848,-0.28337 -1.57266,-0.005 -3.26242,0.11362 -4.17549,0.29373 -0.84356,0.16641 -1.70212,0.30256 -1.90791,0.30256 -0.24995,0 -0.37415,-0.141 -0.37415,-0.42477 0,-0.23362 0.13559,-0.98253 0.3013,-1.66425 0.16572,-0.68171 0.39182,-1.47734 0.50244,-1.76806 0.11062,-0.29072 0.40872,-0.62609 0.66243,-0.74526 0.25372,-0.11917 1.58126,-0.32523 2.95008,-0.4579 1.46126,-0.14163 3.66883,-0.19218 5.34704,-0.12244 1.57205,0.0653 3.29856,0.24576 3.83669,0.40096 0.53813,0.15521 1.33065,0.46963 1.76115,0.69873 0.43051,0.2291 1.05848,0.71953 1.39549,1.08984 0.33702,0.37031 0.72324,1.02979 0.85828,1.46551 0.16293,0.52576 0.20451,1.33996 0.12361,2.42072 -0.076,1.01571 -0.7454,4.16628 -1.77887,8.37261 -1.33541,5.43528 -1.74662,6.83652 -2.11891,7.2203 -0.3723,0.38381 -0.78221,0.51164 -2.11249,0.65878 -0.90781,0.10042 -2.4871,0.27654 -3.50955,0.3914 -1.02244,0.11485 -3.17985,0.20323 -4.79423,0.19639 -1.61439,-0.007 -3.02331,-0.044 -3.13094,-0.0827 z m 8.02649,-4.76405 c 0.48325,-0.24318 0.61737,-0.5297 1.07431,-2.29514 0.28717,-1.1095 0.58209,-2.26691 0.65539,-2.57202 0.13327,-0.55475 0.13327,-0.55475 -2.5611,-0.55362 -1.4819,6.1e-4 -3.0466,0.10031 -3.4771,0.22153 -0.43051,0.12123 -1.07939,0.45129 -1.44196,0.73347 -0.36258,0.28219 -0.83299,0.91801 -1.04536,1.41294 -0.25964,0.60509 -0.34692,1.11532 -0.26644,1.55757 0.0658,0.36173 0.28825,0.81495 0.49427,1.00716 0.20602,0.19221 0.71063,0.47922 1.12135,0.63782 0.53422,0.20627 1.33704,0.26555 2.82061,0.20825 1.20647,-0.0466 2.30479,-0.19631 2.62603,-0.35796 z m 37.66555,4.7505 c -0.26907,-0.0466 -1.25118,-0.18772 -2.18249,-0.31358 -0.9313,-0.12586 -1.80447,-0.29968 -1.94037,-0.38626 -0.1921,-0.1224 -0.12352,-0.58883 0.30814,-2.09571 0.30539,-1.06605 0.67487,-2.04061 0.82107,-2.1657 0.19744,-0.16892 0.69353,-0.16575 1.92843,0.0123 0.91444,0.13188 2.78301,0.29329 4.1524,0.35869 1.62229,0.0775 2.88131,0.0346 3.61348,-0.12317 0.78772,-0.1697 1.29966,-0.42348 1.71223,-0.8488 0.39171,-0.40381 0.58854,-0.80835 0.58854,-1.20964 0,-0.33161 -0.0951,-0.7862 -0.21144,-1.01019 -0.11629,-0.224 -0.51113,-0.53636 -0.87742,-0.69414 -0.36629,-0.15777 -1.60273,-0.47321 -2.74763,-0.70098 -1.14491,-0.22777 -2.54598,-0.59322 -3.11351,-0.81212 -0.56752,-0.21889 -1.40099,-0.67365 -1.85216,-1.01057 -0.51643,-0.38565 -0.96842,-0.95775 -1.22014,-1.54438 -0.32866,-0.76595 -0.38056,-1.19448 -0.29157,-2.40748 0.0783,-1.06677 0.28387,-1.86843 0.742,-2.89307 0.37066,-0.82897 0.94258,-1.70502 1.37768,-2.11024 0.40916,-0.38107 1.09774,-0.92311 1.53018,-1.20452 0.43244,-0.28142 1.47033,-0.7573 2.30643,-1.0575 1.40125,-0.50313 1.76509,-0.54651 4.6511,-0.55458 2.1921,-0.006 3.79034,0.10514 5.33,0.37109 1.20948,0.20891 2.27522,0.48124 2.36831,0.60518 0.10069,0.13407 -0.0459,0.9862 -0.36196,2.10379 -0.29217,1.03315 -0.63101,1.98134 -0.753,2.10709 -0.16527,0.17037 -0.78307,0.16742 -2.42415,-0.0116 -1.2113,-0.13212 -3.14673,-0.29923 -4.30096,-0.37135 -1.7162,-0.10724 -2.25558,-0.0693 -2.9602,0.20809 -0.47389,0.18657 -0.99207,0.49481 -1.15151,0.68499 -0.15944,0.19017 -0.34182,0.5647 -0.40528,0.83227 -0.0635,0.26757 -0.0298,0.6513 0.0747,0.85272 0.10456,0.20142 0.36685,0.46372 0.58285,0.58289 0.21601,0.11917 1.71792,0.53031 3.33757,0.91364 1.61966,0.38332 3.37616,0.88823 3.90332,1.12202 0.52717,0.23378 1.30382,0.81127 1.72589,1.2833 0.56701,0.63414 0.83305,1.16067 1.01882,2.01644 0.19448,0.89584 0.20118,1.40514 0.0296,2.24844 -0.122,0.59964 -0.46039,1.63826 -0.75196,2.30804 -0.34706,0.79723 -0.86465,1.52783 -1.4988,2.11559 -0.53277,0.4938 -1.5094,1.16248 -2.17028,1.48596 -0.66089,0.32348 -1.72996,0.74019 -2.37571,0.92601 -0.83469,0.2402 -2.16406,0.35722 -4.59856,0.4048 -1.88345,0.0368 -3.6446,0.0288 -3.91366,-0.0178 z m -65.78646,-0.39303 c -0.0562,-0.0579 0.31816,-1.94153 0.83183,-4.18584 0.51367,-2.24431 1.34499,-5.75994 1.84739,-7.81252 0.52384,-2.14018 1.1974,-4.34682 1.57919,-5.17354 0.45554,-0.98642 0.97901,-1.73194 1.65788,-2.36116 0.54568,-0.50577 1.44935,-1.1483 2.00816,-1.42786 0.55882,-0.27955 1.5884,-0.66398 2.28797,-0.85429 0.93767,-0.25508 2.10305,-0.34921 4.43437,-0.35819 1.73933,-0.007 3.21636,0.0429 3.28227,0.11022 0.0659,0.0673 -0.12588,1.06587 -0.42621,2.219 -0.54606,2.0966 -0.54606,2.0966 -2.89091,2.21696 -1.53442,0.0788 -2.6129,0.23829 -3.12042,0.46158 -0.42656,0.18767 -0.94226,0.49662 -1.146,0.68655 -0.20373,0.18993 -0.54127,0.6904 -0.75007,1.11216 -0.2088,0.42175 -0.99491,3.55356 -1.7469,6.95958 -0.75199,3.40602 -1.46054,6.55587 -1.57457,6.99966 -0.11402,0.4438 -0.34486,0.96577 -0.51296,1.15994 -0.26291,0.30364 -0.68,0.35302 -2.98228,0.35302 -1.47214,0 -2.72257,-0.0474 -2.77874,-0.10527 z m 37.33131,-0.0685 c -0.0573,-0.0956 0.45574,-2.61465 1.14009,-5.59793 0.68434,-2.98329 1.51866,-6.51348 1.85404,-7.84488 0.33537,-1.3314 0.91982,-3.07293 1.29877,-3.87007 0.44888,-0.94423 1.0067,-1.73763 1.60058,-2.27653 0.50137,-0.45495 1.44602,-1.08895 2.09922,-1.4089 0.65321,-0.31994 1.88936,-0.73014 2.747,-0.91154 0.85765,-0.18141 2.71085,-0.38349 4.11822,-0.44907 1.57402,-0.0733 3.19561,-0.0269 4.2133,0.12055 1.0591,0.1535 2.09882,0.4611 2.88936,0.85483 0.82969,0.41323 1.42051,0.87916 1.8005,1.41993 0.31464,0.44776 0.62446,1.20964 0.69829,1.71713 0.073,0.50174 0.0296,1.56088 -0.0964,2.35364 -0.12598,0.79277 -0.98367,4.43704 -1.90598,8.09839 -0.92231,3.66134 -1.79475,6.95202 -1.93877,7.31261 -0.26185,0.65561 -0.26185,0.65561 -3.10924,0.65561 -2.75795,0 -2.84739,-0.0132 -2.84739,-0.42168 0,-0.23192 0.25919,-1.43472 0.57599,-2.67288 0.31679,-1.23817 1.10931,-4.40479 1.76114,-7.03694 0.65184,-2.63215 1.18517,-5.06913 1.18517,-5.41551 0,-0.34637 -0.15105,-0.89337 -0.33566,-1.21555 -0.20263,-0.35362 -0.66758,-0.71645 -1.17312,-0.91549 -0.645,-0.25393 -1.27613,-0.30759 -2.74635,-0.23348 -1.4264,0.0719 -2.11443,0.20478 -2.72205,0.52571 -0.44724,0.23622 -0.99077,0.66226 -1.20785,0.94676 -0.23627,0.30964 -0.64493,1.62765 -1.01812,3.28369 -0.34288,1.52153 -1.12874,4.92256 -1.74634,7.55784 -0.70547,3.01019 -1.25446,4.94126 -1.47675,5.19448 -0.31989,0.36439 -0.60321,0.40305 -2.95368,0.40305 -1.42991,0 -2.64672,-0.0782 -2.70402,-0.17377 z"
       id="path11"
       sodipodi:nodetypes="sssssssssssssssssssssssscsssssssssssssssscssssssssssssssssscssssssssssssscssssssssscsssssssssscssssssssscsssssssssssccssssssscsscsssssssscssssssccsssssssssssssssssssscc"
       inkscape:label="trans" /><path
       style="display:none;fill:#006ead;fill-opacity:1"
       d="m 45.509633,75.904174 c -0.593513,-0.093 -1.474749,-0.34398 -1.958302,-0.55765 -0.483553,-0.21368 -1.154194,-0.62706 -1.490312,-0.91862 -0.336119,-0.29156 -0.7586,-0.85049 -0.938847,-1.24206 -0.180247,-0.39157 -0.407551,-1.21759 -0.50512,-1.83559 -0.12866,-0.81494 -0.0962,-1.60365 0.118163,-2.87085 0.162558,-0.96097 0.825908,-3.92595 1.474112,-6.58886 0.648204,-2.66291 1.397656,-5.59026 1.66545,-6.50522 0.30835,-1.05354 0.621428,-1.7378 0.853758,-1.86598 0.201773,-0.11132 1.476131,-0.2024 2.831906,-0.2024 1.993602,0 2.486259,0.057 2.575958,0.29796 0.061,0.16388 -0.424079,2.54678 -1.077956,5.29533 -0.653877,2.74856 -1.411011,6.06247 -1.682519,7.36425 -0.271508,1.30178 -0.493651,2.71569 -0.493651,3.14204 0,0.54341 0.131633,0.90229 0.440287,1.20035 0.242158,0.23385 0.69805,0.52587 1.013092,0.64894 0.327456,0.12792 1.58471,0.20767 2.935249,0.18618 1.299344,-0.0207 2.64571,-0.11714 2.991925,-0.21436 0.507798,-0.1426 0.666487,-0.32223 0.820913,-0.92922 0.105287,-0.41384 0.417847,-1.68251 0.694577,-2.81927 0.276731,-1.13676 1.163858,-4.63168 1.971393,-7.76649 1.114249,-4.32547 1.56691,-5.78478 1.877471,-6.05269 0.343392,-0.29623 0.815975,-0.35302 2.937571,-0.35302 1.92419,0 2.552227,0.0642 2.628288,0.26849 0.05497,0.14767 -0.654106,3.43643 -1.575722,7.30835 -0.921616,3.87193 -2.031012,8.30438 -2.465324,9.84989 -0.434312,1.54552 -0.918608,3.0671 -1.076215,3.38129 -0.157606,0.31419 -0.497095,0.71346 -0.754421,0.88728 -0.281415,0.19008 -1.469013,0.43319 -2.980097,0.61003 -1.381728,0.16171 -4.141295,0.32935 -6.132372,0.37253 -1.991077,0.0432 -4.105741,0.002 -4.699255,-0.0906 z m -21.326614,-0.60898 c 0,-0.22741 0.446408,-2.33798 0.992018,-4.69016 0.545611,-2.35218 1.778326,-7.54467 2.739367,-11.53887 0.961041,-3.99419 1.787703,-7.44373 1.837026,-7.66563 0.08785,-0.39524 0.0032,-0.40228 -4.159976,-0.34577 -3.475605,0.0472 -4.320589,0.004 -4.639098,-0.23589 -0.38758,-0.29216 -0.387219,-0.30257 0.07557,-2.17581 0.255757,-1.03524 0.587995,-2.0865 0.738307,-2.33614 0.273294,-0.45388 0.273294,-0.45388 12.585278,-0.45388 7.585664,0 12.356194,0.0737 12.427152,0.1921 0.06334,0.10566 -0.111266,1.1269 -0.388019,2.26943 -0.337786,1.3945 -0.636263,2.19337 -0.908031,2.43035 -0.35926,0.31327 -0.898154,0.35302 -4.786038,0.35302 -2.409657,0 -4.381194,0.038 -4.381194,0.0845 0,0.0464 -1.328803,5.47039 -2.952896,12.05319 -1.624093,6.5828 -3.043794,12.0822 -3.154892,12.22089 -0.145071,0.1811 -1.022441,0.25216 -3.113284,0.25216 -2.804319,0 -2.911288,-0.0152 -2.911288,-0.41346 z m 39.919378,0.10109 c 0,-0.1718 0.705058,-3.3263 1.566797,-7.01001 0.861738,-3.68371 1.790773,-7.39251 2.064523,-8.24178 0.273749,-0.84927 0.752518,-1.94068 1.063931,-2.42535 0.311413,-0.48467 0.769283,-1.07699 1.017488,-1.31627 0.248205,-0.23928 0.968592,-0.75554 1.600858,-1.14724 0.632267,-0.39169 1.688957,-0.89432 2.348199,-1.11696 0.659243,-0.22263 1.944801,-0.49859 2.856797,-0.61325 0.911995,-0.11467 2.497029,-0.20709 3.522298,-0.20539 1.025268,0.002 1.986353,0.0829 2.135744,0.18041 0.227823,0.14873 0.202903,0.44911 -0.154548,1.86289 -0.234393,0.92706 -0.503887,1.87862 -0.598877,2.11457 -0.160201,0.39795 -0.348063,0.43503 -2.594168,0.51212 -2.269038,0.0779 -2.48863,0.12221 -3.488566,0.70442 -0.789365,0.4596 -1.183182,0.85366 -1.513077,1.51402 -0.245283,0.49098 -0.881199,2.70426 -1.413146,4.91838 -0.531948,2.21412 -1.271962,5.32806 -1.644476,6.91986 -0.372514,1.5918 -0.82895,3.06693 -1.014301,3.27806 -0.300363,0.34215 -0.631555,0.38389 -3.046239,0.38389 -2.315433,0 -2.709237,-0.0454 -2.709237,-0.31237 z m 16.437391,0.0216 c 0,-0.15994 0.395685,-2.00403 0.879299,-4.09798 0.483615,-2.09395 1.532342,-6.52861 2.330504,-9.8548 0.798163,-3.32619 1.578355,-6.49754 1.733759,-7.04745 0.282553,-0.99983 0.282553,-0.99983 3.084344,-1.05601 1.540984,-0.0309 2.878263,0.0227 2.971733,0.11901 0.0961,0.0991 -0.934967,4.78824 -2.374087,10.79663 -1.399214,5.8418 -2.638635,10.80368 -2.754267,11.02642 -0.195628,0.37682 -0.406979,0.40497 -3.040763,0.40497 -2.334515,0 -2.830522,-0.051 -2.830522,-0.29079 z m 6.126915,-25.65808 c -0.06746,-0.18125 0.03165,-1.17413 0.220247,-2.20642 0.188602,-1.03228 0.459424,-2.0414 0.601827,-2.24249 0.226299,-0.31955 0.630799,-0.37379 3.21108,-0.43058 2.60593,-0.0574 2.96678,-0.0257 3.07677,0.26978 0.0685,0.18412 -0.11534,1.25723 -0.40862,2.3847 -0.29328,1.12747 -0.62463,2.16347 -0.73635,2.30224 -0.14535,0.18055 -1.00492,0.2523 -3.022701,0.2523 -2.428239,0 -2.836613,-0.0457 -2.942253,-0.32953 z"
       id="path12"
       sodipodi:nodetypes="ssssssssssssssssssssssssssssssssssssscssssssssssssssssssssscsssssssssssssssscssssssscsssss"
       inkscape:label="turi" /><rect
       style="fill:#000000;fill-opacity:0;stroke-width:0.799999"
       id="rect1"
       width="238.89235"
       height="84.994514"
       x="16.957264"
       y="37.842567" /></g></svg>
